<?xml version="1.0" standalone="no"?>
<!DOCTYPE svg PUBLIC "-//W3C//DTD SVG 20010904//EN"
 "http://www.w3.org/TR/2001/REC-SVG-20010904/DTD/svg10.dtd">
<svg version="1.0" xmlns="http://www.w3.org/2000/svg"
 width="1000.000000pt" height="1000.000000pt" viewBox="0 0 1000.000000 1000.000000"
 preserveAspectRatio="xMidYMid meet">
<metadata>
Created by potrace 1.11, written by Peter Selinger 2001-2013
</metadata>
<g transform="translate(0.000000,1000.000000) scale(0.100000,-0.100000)"
fill="#000000" stroke="none">
<path d="M1305 6703 c-16 -2 -59 -10 -95 -18 -263 -55 -454 -155 -644 -336
-61 -58 -122 -112 -134 -118 -57 -30 -176 -63 -229 -64 -7 0 -10 -3 -8 -7 5
-8 118 0 202 15 30 5 43 4 43 -4 0 -6 -4 -11 -8 -11 -16 0 -118 -186 -141
-254 -26 -81 -37 -206 -23 -256 9 -33 10 -31 10 27 0 34 8 88 18 120 l17 58
11 -36 c6 -19 18 -46 28 -60 16 -24 16 -24 11 18 -6 48 14 109 54 161 l25 33
23 -50 c48 -103 135 -157 244 -152 21 1 20 4 -17 34 -52 41 -86 115 -79 170 3
21 8 41 11 44 3 3 18 -10 33 -28 86 -104 204 -187 314 -219 100 -30 104 -28
69 27 -16 25 -33 63 -36 82 -4 20 -8 44 -10 54 -4 24 13 22 21 -3 20 -62 149
-179 247 -224 87 -39 211 -73 286 -77 23 -2 42 -4 42 -6 0 -2 -18 -39 -39 -82
-88 -174 -96 -322 -22 -415 l29 -36 20 32 c11 18 20 49 20 68 0 126 89 225
185 205 63 -14 127 -98 127 -169 0 -32 -35 -110 -81 -181 -27 -41 -102 -115
-117 -115 -5 0 -37 -55 -71 -122 -125 -243 -261 -380 -470 -475 -154 -69 -185
-88 -245 -148 -34 -33 -83 -93 -110 -134 -47 -71 -116 -215 -130 -273 -11 -47
1 -31 20 25 50 150 168 327 262 394 45 33 139 73 168 73 10 0 -5 -23 -41 -61
-193 -209 -287 -445 -246 -621 15 -63 103 -278 115 -278 1 0 3 51 3 113 -1 89
4 128 23 190 13 42 24 76 26 75 1 -2 5 -33 8 -69 11 -140 82 -254 199 -319
l38 -22 -20 36 c-51 90 -54 196 -9 293 32 70 137 169 253 239 134 81 144 83
77 16 -90 -89 -152 -195 -152 -260 0 -64 51 -138 114 -168 17 -8 22 -9 11 -2
-45 29 -84 80 -93 121 -26 125 150 335 427 507 44 28 83 50 85 50 14 0 264
164 351 229 122 93 275 243 338 332 61 86 132 237 151 319 59 256 86 592 64
790 -41 359 -231 549 -549 550 l-86 0 -27 39 c-39 56 -142 152 -208 194 -104
67 -215 110 -338 132 -69 12 -272 17 -345 8z"/>
<path d="M9295 6464 c-89 -72 -284 -102 -422 -66 -157 42 -208 43 -318 6 -49
-16 -117 -29 -175 -34 -100 -8 -163 -29 -216 -73 -24 -20 -45 -25 -117 -31
-208 -15 -383 -118 -490 -288 -18 -29 -39 -69 -47 -88 -24 -65 -100 -210 -166
-320 -73 -121 -84 -170 -58 -256 11 -39 12 -60 3 -108 -41 -217 12 -413 147
-552 25 -27 34 -46 39 -87 17 -134 81 -244 166 -288 54 -27 71 -25 69 9 -4 49
0 48 31 -8 37 -68 101 -134 154 -160 63 -30 76 -27 71 18 -2 20 2 55 8 77 l12
40 13 -32 c18 -43 44 -54 29 -12 -10 29 -5 138 9 176 13 38 25 45 45 26 19
-17 19 -17 13 12 -8 32 -33 89 -64 145 -38 67 -54 224 -31 297 23 70 69 103
145 103 95 0 167 -66 206 -189 17 -53 21 -96 23 -221 3 -202 39 -373 89 -430
18 -20 50 -61 71 -91 22 -31 56 -65 77 -77 27 -15 38 -30 43 -54 4 -20 28 -56
60 -91 30 -32 63 -77 74 -101 30 -64 77 -105 167 -147 166 -77 307 -91 405
-40 19 10 58 24 87 30 63 15 111 63 138 137 10 27 23 55 28 62 5 6 9 31 8 55
-5 166 -8 215 -14 223 -3 6 -30 16 -59 23 -29 6 -80 26 -113 44 -106 59 -128
147 -55 223 36 37 129 88 177 99 38 8 58 49 49 99 -6 33 -10 35 -61 46 -123
25 -264 7 -375 -48 -49 -24 -58 -34 -90 -97 -43 -86 -65 -96 -155 -67 -52 17
-64 18 -86 6 -22 -11 -28 -11 -42 3 -9 9 -30 18 -45 19 -16 1 -58 14 -93 28
-38 15 -73 23 -87 19 -20 -5 -22 -3 -18 23 3 16 7 49 10 74 15 135 19 166 21
180 1 8 6 44 9 80 14 134 26 233 32 263 2 12 -8 22 -31 31 -40 17 -50 46 -41
112 6 48 45 132 70 153 13 11 15 10 11 -9 -5 -25 25 -74 54 -90 16 -8 18 -4
19 31 2 54 47 142 95 185 47 43 89 44 120 2 36 -48 20 -109 -49 -195 -19 -23
-34 -44 -34 -47 0 -12 76 26 102 51 l26 25 -8 -36 c-4 -20 -13 -43 -19 -50
-10 -12 -5 -13 31 -5 51 12 107 48 140 91 46 61 52 65 108 70 30 4 81 17 113
31 59 27 68 26 41 -4 -15 -17 -14 -18 25 -14 48 5 95 27 134 63 l27 26 0 -23
c0 -12 -5 -31 -10 -42 -16 -29 4 -24 43 11 19 17 37 30 39 30 12 0 -11 -82
-27 -100 -22 -24 -8 -26 23 -4 36 25 55 74 61 159 7 88 22 104 60 66 26 -26
36 -26 61 -1 28 28 26 86 -5 144 -14 26 -25 49 -25 51 0 2 13 6 30 10 28 6 97
72 86 82 -2 3 -21 -1 -42 -7 -47 -16 -140 -7 -165 16 -20 18 -54 101 -62 152
-14 86 -100 192 -158 192 -15 0 -50 16 -79 35 -52 35 -133 65 -179 65 l-26 1
30 16 c44 23 74 53 97 96 27 55 21 72 -17 41z"/>
<path d="M3399 6013 c-6 -123 -2 -861 5 -870 13 -19 44 -16 50 5 2 9 4 177 4
372 1 195 1 363 1 373 1 18 31 -19 241 -292 46 -60 93 -112 104 -115 25 -6 34
1 88 72 24 31 88 113 142 182 54 69 104 133 110 143 6 9 14 17 17 17 4 0 7
-168 7 -374 0 -206 3 -379 6 -385 11 -17 44 -13 50 7 7 23 7 842 0 865 -14 44
-45 15 -190 -175 -81 -106 -164 -214 -184 -239 l-36 -47 -184 239 c-145 188
-189 239 -207 239 -15 0 -23 -6 -24 -17z"/>
<path d="M4699 6028 c0 -2 -2 -11 -4 -22 -2 -10 -25 -73 -51 -140 -27 -66 -49
-123 -49 -126 -1 -3 -7 -18 -14 -35 -107 -264 -212 -549 -207 -561 3 -9 15
-14 28 -12 19 2 30 23 68 121 l45 117 213 0 c194 0 213 -2 218 -17 4 -10 12
-31 19 -48 7 -16 25 -63 40 -103 26 -67 31 -73 54 -70 19 2 26 9 25 23 -2 16
-204 546 -249 650 -7 17 -27 68 -45 115 -31 83 -50 110 -77 110 -7 0 -13 -1
-14 -2z m125 -364 c47 -121 86 -225 86 -230 0 -7 -114 -9 -347 -4 -23 0 -23 0
-7 43 9 23 22 56 29 72 7 17 41 103 76 193 34 89 66 159 70 155 4 -5 46 -107
93 -229z"/>
<path d="M5223 6022 c-8 -5 -11 -121 -11 -437 0 -236 3 -435 5 -442 6 -16 39
-17 49 -2 3 6 6 78 6 160 l1 150 122 100 c68 56 126 101 130 101 4 -1 29 -36
56 -79 26 -43 52 -82 56 -88 5 -5 58 -88 118 -182 89 -142 113 -173 132 -173
16 0 23 6 23 20 0 11 -74 138 -165 281 -91 144 -165 264 -165 268 0 3 71 66
159 139 187 156 183 152 167 174 -11 15 -15 15 -40 3 -23 -12 -116 -84 -136
-105 -3 -3 -30 -25 -60 -50 -30 -25 -64 -52 -75 -61 -11 -10 -54 -46 -96 -80
-142 -119 -210 -174 -218 -177 -5 -2 -9 104 -9 234 0 187 -3 238 -14 245 -16
11 -20 11 -35 1z"/>
<path d="M6043 5584 c0 -245 4 -447 9 -450 4 -3 139 -6 299 -6 303 0 326 3
303 40 -10 15 -37 17 -260 19 -137 1 -259 2 -271 3 -23 0 -23 1 -23 158 l0
157 213 0 c232 -1 243 0 251 22 14 35 -8 38 -238 38 l-226 0 0 201 0 202 271
0 c282 0 306 3 283 40 -10 15 -40 17 -311 19 l-301 2 1 -445z"/>
<path d="M787 5659 c-82 -19 -130 -59 -116 -96 l8 -23 37 25 c43 30 88 39 152
32 51 -6 158 -42 167 -58 4 -5 10 -9 16 -9 35 0 -38 72 -106 105 -61 28 -108
36 -158 24z"/>
<path d="M9325 5312 c-79 -8 -215 -72 -261 -123 l-19 -21 40 17 c122 53 281
68 337 31 l25 -16 10 44 c10 43 9 45 -16 55 -30 13 -74 18 -116 13z"/>
<path d="M3399 4878 c-5 -75 -2 -854 3 -869 8 -22 43 -26 51 -5 3 7 5 172 5
367 0 195 1 365 1 378 1 22 5 19 39 -26 20 -27 49 -65 64 -84 15 -19 71 -90
123 -159 98 -126 108 -137 135 -136 13 1 94 100 272 333 35 45 66 82 69 83 4
0 7 -170 7 -377 1 -212 6 -381 11 -386 5 -5 17 -7 27 -5 18 3 19 23 19 448 l0
445 -24 0 c-20 0 -56 -41 -200 -229 -97 -126 -181 -231 -186 -232 -6 -2 -91
103 -189 232 -143 187 -184 234 -203 234 -13 0 -23 -6 -24 -12z"/>
<path d="M4345 4884 c-10 -4 -12 -880 -2 -891 3 -2 136 -5 296 -5 308 -1 332
3 311 43 -10 18 -26 19 -268 18 -141 0 -264 0 -272 0 -13 1 -15 24 -15 159 l0
157 217 1 c119 1 223 4 232 7 19 7 22 46 4 48 -7 1 -107 3 -223 4 -115 2 -215
3 -220 4 -7 1 -10 72 -10 199 l0 197 268 2 c280 1 307 5 287 43 -9 16 -32 18
-302 17 -161 0 -297 -1 -303 -3z"/>
<path d="M5332 4565 l3 -320 27 -55 c37 -75 95 -133 171 -169 58 -28 72 -30
153 -28 71 2 99 7 139 27 75 37 148 114 175 185 22 58 23 72 25 358 1 312 -2
336 -41 323 -18 -6 -19 -19 -19 -309 l-1 -303 -28 -57 c-31 -65 -72 -108 -131
-140 -32 -17 -57 -22 -125 -22 -101 0 -161 25 -217 90 -67 77 -67 79 -71 415
-2 183 -7 309 -13 317 -6 6 -19 11 -30 10 -20 -1 -20 -8 -17 -322z"/>
<path d="M6144 4882 c-7 -5 -10 -145 -8 -442 1 -239 2 -438 3 -442 2 -13 38
-9 48 5 5 6 9 50 8 97 -1 47 3 90 8 97 5 8 40 12 96 11 49 0 108 3 132 7 102
17 207 94 252 185 18 37 22 62 22 140 0 85 -3 101 -30 153 -37 74 -108 139
-183 168 -47 18 -81 23 -197 25 -77 2 -145 0 -151 -4z m336 -84 c71 -34 117
-79 148 -146 22 -48 24 -64 19 -132 -5 -72 -8 -83 -46 -133 -30 -41 -56 -63
-98 -84 -53 -25 -69 -28 -183 -31 l-125 -3 0 281 0 281 115 -4 c99 -3 123 -7
170 -29z"/>
<path d="M571 4806 c-13 -16 -4 -43 22 -65 11 -8 13 -21 7 -46 -5 -22 -4 -40
4 -49 15 -21 75 -27 111 -11 57 25 115 92 115 132 0 22 -4 23 -69 23 -38 0
-88 7 -111 15 -53 19 -64 19 -79 1z"/>
</g>
</svg>
